<svg width="30" height="31" viewBox="0 0 30 31" fill="none" xmlns="http://www.w3.org/2000/svg">
<path d="M22.5 26.75H7.5C6.80965 26.75 6.25 26.1904 6.25 25.5L6.25 5.5C6.25 4.80965 6.80964 4.25 7.5 4.25L16.9539 4.25C17.3021 4.25 17.6345 4.39524 17.8711 4.65074L23.4172 10.6406C23.6311 10.8716 23.75 11.1749 23.75 11.4898L23.75 25.5C23.75 26.1904 23.1904 26.75 22.5 26.75Z" stroke="white" stroke-width="2" stroke-linecap="round" stroke-linejoin="round"/>
<path d="M11.25 21.75H18.75" stroke="white" stroke-width="2" stroke-linecap="round" stroke-linejoin="round"/>
<path d="M11.25 18H18.75" stroke="white" stroke-width="2" stroke-linecap="round" stroke-linejoin="round"/>
<path d="M23.75 11.75L17.5 11.75C16.8096 11.75 16.25 11.1904 16.25 10.5L16.25 4.25" stroke="white" stroke-width="2" stroke-linecap="round" stroke-linejoin="round"/>
</svg>
