<svg width="28" height="29" viewBox="0 0 28 29" fill="none" xmlns="http://www.w3.org/2000/svg">
<path fill-rule="evenodd" clip-rule="evenodd" d="M14 3.25C7.7868 3.25 2.75 8.2868 2.75 14.5C2.75 20.7132 7.7868 25.75 14 25.75C20.2132 25.75 25.25 20.7132 25.25 14.5C25.25 8.2868 20.2132 3.25 14 3.25ZM0.25 14.5C0.25 6.90608 6.40608 0.75 14 0.75C21.5939 0.75 27.75 6.90608 27.75 14.5C27.75 22.0939 21.5939 28.25 14 28.25C6.40608 28.25 0.25 22.0939 0.25 14.5Z" fill="white"/>
<path fill-rule="evenodd" clip-rule="evenodd" d="M9.96875 11.4443C9.96875 9.37327 11.6477 7.69434 13.7188 7.69434H14.2743C16.3454 7.69434 18.0243 9.37327 18.0243 11.4443V11.7221H15.5243V11.4443C15.5243 10.754 14.9647 10.1943 14.2743 10.1943H13.7188C13.0284 10.1943 12.4688 10.754 12.4688 11.4443V11.5659C12.4688 12.0394 12.7363 12.4722 13.1597 12.684L15.9514 14.0798C17.2218 14.715 18.0243 16.0135 18.0243 17.4339V17.5554C18.0243 19.6265 16.3454 21.3054 14.2743 21.3054H13.7188C11.6477 21.3054 9.96875 19.6265 9.96875 17.5554V17.2777H12.4688V17.5554C12.4688 18.2458 13.0284 18.8054 13.7188 18.8054H14.2743C14.9647 18.8054 15.5243 18.2458 15.5243 17.5554V17.4339C15.5243 16.9604 15.2568 16.5276 14.8333 16.3158L12.0417 14.92C10.7713 14.2848 9.96875 12.9863 9.96875 11.5659V11.4443Z" fill="white"/>
<path fill-rule="evenodd" clip-rule="evenodd" d="M14.25 6.1665C14.8023 6.1665 15.25 6.61422 15.25 7.1665V7.94428C15.25 8.49657 14.8023 8.94428 14.25 8.94428H13.75C13.1977 8.94428 12.75 8.49657 12.75 7.94428V7.1665C12.75 6.61422 13.1977 6.1665 13.75 6.1665H14.25Z" fill="white"/>
<path fill-rule="evenodd" clip-rule="evenodd" d="M14.25 20.0557C14.8023 20.0557 15.25 20.5034 15.25 21.0557V21.8334C15.25 22.3857 14.8023 22.8334 14.25 22.8334H13.75C13.1977 22.8334 12.75 22.3857 12.75 21.8334V21.0557C12.75 20.5034 13.1977 20.0557 13.75 20.0557H14.25Z" fill="white"/>
</svg>
