<svg width="30" height="31" viewBox="0 0 30 31" fill="none" xmlns="http://www.w3.org/2000/svg">
<path d="M11.25 16.75C12.6307 16.75 13.75 15.6307 13.75 14.25C13.75 12.8693 12.6307 11.75 11.25 11.75C9.86929 11.75 8.75 12.8693 8.75 14.25C8.75 15.6307 9.86929 16.75 11.25 16.75Z" stroke="white" stroke-width="2" stroke-linecap="round" stroke-linejoin="round"/>
<path d="M25 8H5C4.30964 8 3.75 8.55964 3.75 9.25V21.75C3.75 22.4404 4.30964 23 5 23H25C25.6904 23 26.25 22.4404 26.25 21.75V9.25C26.25 8.55964 25.6904 8 25 8Z" stroke="white" stroke-width="2" stroke-linecap="round" stroke-linejoin="round"/>
<path d="M7.5 23C7.5 21.6193 9.17893 20.5 11.25 20.5C13.3211 20.5 15 21.6193 15 23" stroke="white" stroke-width="2" stroke-linecap="round" stroke-linejoin="round"/>
<path d="M22.5 18L17.5 18" stroke="white" stroke-width="2" stroke-linecap="round" stroke-linejoin="round"/>
<path d="M22.5 14.25L18.75 14.25" stroke="white" stroke-width="2" stroke-linecap="round" stroke-linejoin="round"/>
</svg>
