<svg width="93" height="101" viewBox="0 0 93 101" fill="none" xmlns="http://www.w3.org/2000/svg">
<path d="M70.2786 25.5624L58.3847 18.8308L46.4908 12.0993L34.5969 18.8308L22.703 25.5624V32.7819L11.9972 38.8378V19.5065L29.244 9.747L46.4908 0L63.7376 9.747L80.9844 19.5065V38.8378L70.2786 32.7819V25.5624Z" fill="#6337AD"/>
<path fill-rule="evenodd" clip-rule="evenodd" d="M46.4922 12.0993L34.5983 18.8308L22.7044 25.5624V32.7819L11.9986 38.8378V19.5065L29.2454 9.747L46.4922 0V12.0993Z" fill="#8343EB"/>
<path fill-rule="evenodd" clip-rule="evenodd" d="M46.5041 35.6346L46.5064 26.4507C54.9509 26.5633 61.9902 33.3074 61.9902 41.6029C61.9902 43.0794 61.773 44.4933 61.377 45.8446V57.5059L70.2942 52.4635V39.8387L81 45.8946V58.5194L46.4936 76.9999L46.4963 66.2125L50.3262 63.5118V47.8715C52.1403 46.6704 53.3284 44.6309 53.3284 42.3286C53.3284 38.6285 50.268 35.6402 46.5041 35.6346Z" fill="#8343EB"/>
<path fill-rule="evenodd" clip-rule="evenodd" d="M12.0108 58.5197V45.8949L22.7166 39.839V52.4638L31.6211 57.5062V45.8324C31.225 44.4811 31.0206 43.0672 31.0206 41.6033C31.0206 33.2326 37.9449 26.4385 46.5044 26.4385C46.5811 26.4385 46.6577 26.4385 46.7344 26.451V35.6391C46.6538 35.6363 46.5729 35.635 46.4916 35.635C42.7101 35.635 39.6568 38.6379 39.6568 42.329C39.6568 44.6312 40.8577 46.6707 42.6718 47.8719V63.5121L46.4916 66.2147L46.7344 66.0436V76.8751L46.4916 77.0002L12.0108 58.5197Z" fill="#6337AD"/>
<path d="M2.86133 98H1.0498V91.291H5.59082C6.0791 91.291 6.49251 91.3415 6.83105 91.4424C7.17285 91.5433 7.44954 91.6865 7.66113 91.8721C7.87598 92.0576 8.0306 92.2822 8.125 92.5459C8.22266 92.8063 8.27148 93.0977 8.27148 93.4199C8.27148 93.7031 8.23079 93.9505 8.14941 94.1621C8.07129 94.3737 7.96387 94.556 7.82715 94.709C7.69368 94.8587 7.53743 94.9857 7.3584 95.0898C7.17936 95.194 6.99056 95.2803 6.79199 95.3486L8.98926 98H6.87012L4.83887 95.5293H2.86133V98ZM6.44043 93.4102C6.44043 93.2799 6.42253 93.1693 6.38672 93.0781C6.35417 92.987 6.29557 92.9137 6.21094 92.8584C6.1263 92.7998 6.01237 92.7575 5.86914 92.7314C5.72917 92.7054 5.55339 92.6924 5.3418 92.6924H2.86133V94.1279H5.3418C5.55339 94.1279 5.72917 94.1149 5.86914 94.0889C6.01237 94.0628 6.1263 94.0221 6.21094 93.9668C6.29557 93.9082 6.35417 93.8333 6.38672 93.7422C6.42253 93.651 6.44043 93.5404 6.44043 93.4102ZM9.28809 98V91.291H16.0801V92.7217H11.1484V93.8301H15.8262V95.2607H11.1484V96.5693H16.1484V98H9.28809ZM23.2393 98L18.7129 93.3906V98H16.9014V91.291H18.8691L23.4004 95.9199V91.291H25.2021V98H23.2393ZM30.0615 92.751V98H28.25V92.751H25.4033V91.291H32.9131V92.751H30.0615ZM44.5557 94.6504C44.5557 95.2266 44.4499 95.736 44.2383 96.1787C44.0267 96.6182 43.724 96.986 43.3301 97.2822C42.9362 97.5785 42.4577 97.8031 41.8945 97.9561C41.3346 98.1058 40.7048 98.1807 40.0049 98.1807C39.305 98.1807 38.6719 98.1058 38.1055 97.9561C37.5423 97.8031 37.0622 97.5785 36.665 97.2822C36.2679 96.986 35.9619 96.6182 35.7471 96.1787C35.5322 95.736 35.4248 95.2266 35.4248 94.6504C35.4248 94.0742 35.5322 93.5664 35.7471 93.127C35.9619 92.6842 36.2679 92.3148 36.665 92.0186C37.0622 91.7223 37.5423 91.4993 38.1055 91.3496C38.6719 91.1966 39.305 91.1201 40.0049 91.1201C40.7048 91.1201 41.3346 91.1966 41.8945 91.3496C42.4577 91.4993 42.9362 91.7223 43.3301 92.0186C43.724 92.3148 44.0267 92.6842 44.2383 93.127C44.4499 93.5664 44.5557 94.0742 44.5557 94.6504ZM42.7246 94.6504C42.7246 94.3997 42.6839 94.1507 42.6025 93.9033C42.5244 93.6527 42.3828 93.4281 42.1777 93.2295C41.9759 93.0309 41.6992 92.8698 41.3477 92.7461C40.9961 92.6224 40.5485 92.5605 40.0049 92.5605C39.6403 92.5605 39.3197 92.5898 39.043 92.6484C38.7663 92.7038 38.527 92.7819 38.3252 92.8828C38.1234 92.9837 37.9541 93.1025 37.8174 93.2393C37.6807 93.3727 37.5716 93.5176 37.4902 93.6738C37.4089 93.8268 37.3503 93.988 37.3145 94.1572C37.2819 94.3232 37.2656 94.4876 37.2656 94.6504C37.2656 94.8164 37.2819 94.984 37.3145 95.1533C37.3503 95.3226 37.4089 95.4854 37.4902 95.6416C37.5716 95.7946 37.6807 95.9378 37.8174 96.0713C37.9541 96.2048 38.1234 96.3219 38.3252 96.4229C38.527 96.5205 38.7663 96.5986 39.043 96.6572C39.3197 96.7126 39.6403 96.7402 40.0049 96.7402C40.5485 96.7402 40.9961 96.6784 41.3477 96.5547C41.6992 96.431 41.9759 96.2699 42.1777 96.0713C42.3828 95.8727 42.5244 95.6497 42.6025 95.4023C42.6839 95.1517 42.7246 94.901 42.7246 94.6504ZM51.5439 98L47.0176 93.3906V98H45.2061V91.291H47.1738L51.7051 95.9199V91.291H53.5068V98H51.5439ZM61.999 97.541C61.7646 97.6387 61.5286 97.7266 61.291 97.8047C61.0534 97.8828 60.8076 97.9495 60.5537 98.0049C60.2998 98.0635 60.0312 98.1074 59.748 98.1367C59.4681 98.166 59.167 98.1807 58.8447 98.1807C58.1611 98.1807 57.5312 98.1074 56.9551 97.9609C56.3822 97.8145 55.8874 97.5947 55.4707 97.3018C55.0573 97.0055 54.735 96.6377 54.5039 96.1982C54.2728 95.7555 54.1572 95.2396 54.1572 94.6504C54.1572 94.0612 54.2728 93.5469 54.5039 93.1074C54.735 92.6647 55.0573 92.2969 55.4707 92.0039C55.8874 91.7077 56.3822 91.4863 56.9551 91.3398C57.5312 91.1934 58.1611 91.1201 58.8447 91.1201C59.167 91.1201 59.4681 91.1348 59.748 91.1641C60.0312 91.1934 60.2998 91.2373 60.5537 91.2959C60.8076 91.3512 61.0534 91.418 61.291 91.4961C61.5286 91.5742 61.7646 91.6621 61.999 91.7598V93.3906C61.8135 93.2897 61.6182 93.1904 61.4131 93.0928C61.208 92.9919 60.9818 92.9023 60.7344 92.8242C60.487 92.7428 60.2152 92.6777 59.9189 92.6289C59.6227 92.5768 59.2891 92.5508 58.918 92.5508C58.3483 92.5508 57.8747 92.6094 57.4971 92.7266C57.1227 92.8438 56.8232 93 56.5986 93.1953C56.374 93.3906 56.2161 93.6152 56.125 93.8691C56.0339 94.1198 55.9883 94.3802 55.9883 94.6504C55.9883 94.8294 56.0078 95.0068 56.0469 95.1826C56.0859 95.3551 56.151 95.5195 56.2422 95.6758C56.3333 95.8288 56.4521 95.9704 56.5986 96.1006C56.7451 96.2308 56.9274 96.3431 57.1455 96.4375C57.3636 96.5319 57.6175 96.6068 57.9072 96.6621C58.2002 96.7142 58.5371 96.7402 58.918 96.7402C59.2891 96.7402 59.6227 96.7174 59.9189 96.6719C60.2152 96.623 60.487 96.5596 60.7344 96.4814C60.9818 96.4033 61.208 96.3154 61.4131 96.2178C61.6182 96.1169 61.8135 96.0143 61.999 95.9102V97.541ZM69.1094 98V95.2021H64.5V98H62.6885V91.291H64.5V93.7324H69.1094V91.291H70.9209V98H69.1094ZM77.4111 96.7305H73.6709L73.041 98H71.0195L74.5303 91.291H76.5518L80.0625 98H78.041L77.4111 96.7305ZM74.3203 95.4219H76.7715L75.5508 92.9512L74.3203 95.4219ZM80.1611 98V91.291H81.9727V98H80.1611ZM89.415 98L84.8887 93.3906V98H83.0771V91.291H85.0449L89.5762 95.9199V91.291H91.3779V98H89.415Z" fill="white"/>
</svg>
