<svg width="40" height="41" viewBox="0 0 40 41" fill="none" xmlns="http://www.w3.org/2000/svg">
<mask id="mask0_1461_42209" style="mask-type:alpha" maskUnits="userSpaceOnUse" x="0" y="0" width="40" height="41">
<rect y="0.5" width="40" height="40" fill="#D9D9D9"/>
</mask>
<g mask="url(#mask0_1461_42209)">
<path d="M6.91666 33.9168C5.85812 33.9168 5 33.0587 5 32.0002C5 30.9416 5.85812 30.0835 6.91667 30.0835H8.83333V16.6668C8.83333 14.0154 9.63194 11.6595 11.2292 9.59912C12.8264 7.5387 14.9028 6.18905 17.4583 5.55016V4.2085C17.4583 3.40988 17.7378 2.73107 18.2969 2.17204C18.8559 1.61301 19.5347 1.3335 20.3333 1.3335C21.1319 1.3335 21.8108 1.61301 22.3698 2.17204C22.9288 2.73107 23.2083 3.40988 23.2083 4.2085V5.55016C25.7639 6.18905 27.8403 7.5387 29.4375 9.59912C31.0347 11.6595 31.8333 14.0154 31.8333 16.6668V30.0835H33.75C34.8085 30.0835 35.6667 30.9416 35.6667 32.0002C35.6667 33.0587 34.8085 33.9168 33.75 33.9168H6.91666ZM20.3333 39.6668C19.2792 39.6668 18.3767 39.2915 17.626 38.5408C16.8753 37.7901 16.5 36.8877 16.5 35.8335H24.1667C24.1667 36.8877 23.7913 37.7901 23.0406 38.5408C22.2899 39.2915 21.3875 39.6668 20.3333 39.6668ZM12.6667 30.0835H28V16.6668C28 14.5585 27.2493 12.7536 25.7479 11.2522C24.2465 9.75086 22.4417 9.00016 20.3333 9.00016C18.225 9.00016 16.4201 9.75086 14.9187 11.2522C13.4174 12.7536 12.6667 14.5585 12.6667 16.6668V30.0835Z" fill="white"/>
</g>
</svg>
