<svg width="30" height="31" viewBox="0 0 30 31" fill="none" xmlns="http://www.w3.org/2000/svg">
<path d="M8.75 25.5C8.75 23.4289 11.5482 21.75 15 21.75C18.4518 21.75 21.25 23.4289 21.25 25.5" stroke="#8343EB" stroke-width="2" stroke-linecap="round" stroke-linejoin="round"/>
<path d="M22.5 18.312C24.7074 18.8907 26.25 20.2122 26.25 21.75" stroke="#8343EB" stroke-width="2" stroke-linecap="round" stroke-linejoin="round"/>
<path d="M7.5 18.312C5.29262 18.8907 3.75 20.2122 3.75 21.75" stroke="#8343EB" stroke-width="2" stroke-linecap="round" stroke-linejoin="round"/>
<path d="M15 18C17.0711 18 18.75 16.3211 18.75 14.25C18.75 12.1789 17.0711 10.5 15 10.5C12.9289 10.5 11.25 12.1789 11.25 14.25C11.25 16.3211 12.9289 18 15 18Z" stroke="#8343EB" stroke-width="2" stroke-linecap="round" stroke-linejoin="round"/>
<path d="M22.5 13.2951C23.2672 12.6085 23.75 11.6106 23.75 10.5C23.75 8.42893 22.0711 6.75 20 6.75C19.0396 6.75 18.1634 7.11107 17.5 7.70487" stroke="#8343EB" stroke-width="2" stroke-linecap="round" stroke-linejoin="round"/>
<path d="M7.5 13.2951C6.73281 12.6085 6.25 11.6106 6.25 10.5C6.25 8.42893 7.92893 6.75 10 6.75C10.9604 6.75 11.8366 7.11107 12.5 7.70487" stroke="#8343EB" stroke-width="2" stroke-linecap="round" stroke-linejoin="round"/>
</svg>
